M48
;DRILL file {KiCad 4.0.6} date 08/04/17 19:12:37
;FORMAT={-:-/ absolute / metric / decimal}
FMAT,2
METRIC,TZ
T1C0.800
T2C0.900
T3C1.000
T4C1.097
%
G90
G05
M71
T1
X139.7Y-151.13
X139.7Y-161.29
X146.05Y-133.35
X146.05Y-135.89
X146.05Y-138.43
X146.05Y-140.97
X146.05Y-143.51
X146.05Y-146.05
X146.05Y-148.59
X146.05Y-151.13
X153.67Y-133.35
X153.67Y-135.89
X153.67Y-138.43
X153.67Y-140.97
X153.67Y-143.51
X153.67Y-146.05
X153.67Y-148.59
X153.67Y-151.13
T2
X156.21Y-157.48
X156.21Y-160.02
T3
X143.51Y-125.73
X146.05Y-125.73
X148.59Y-125.73
X151.13Y-125.73
X153.67Y-125.73
X156.21Y-125.73
T4
X138.43Y-142.24
X138.43Y-144.78
X148.59Y-158.75
X151.13Y-158.75
X161.29Y-142.24
X161.29Y-144.78
T0
M30
